<?xml version="1.0" encoding="utf-8"?>
<!-- Generator: Adobe Illustrator 16.0.0, SVG Export Plug-In . SVG Version: 6.00 Build 0)  -->
<!DOCTYPE svg PUBLIC "-//W3C//DTD SVG 1.1//EN" "http://www.w3.org/Graphics/SVG/1.1/DTD/svg11.dtd">
<svg version="1.1" id="coach" xmlns="http://www.w3.org/2000/svg" xmlns:xlink="http://www.w3.org/1999/xlink" x="0px" y="0px"
	 width="500px" height="500px" viewBox="0 0 500 500" enable-background="new 0 0 500 500" xml:space="preserve">
<g id="_x32_">
	<path opacity="0.1" enable-background="new " d="M264.523,128.532c8.908,1.801,17.75,4.633,26.367,8.556
		c61.211,27.864,81.926,97.879,54.062,159.089c-27.864,61.211-93.917,90.793-155.128,62.929c-0.649-0.296-1.288-0.603-1.929-0.907
		c-6.496,4.36-11.51,7.437-18.447,10.989c4.422,2.629,7.303,5.941,12.09,8.12c71.248,32.435,155.598,0.856,188.032-70.391
		c32.434-71.249,0.854-155.598-70.393-188.032c-14.188-6.459-28.896-9.372-43.611-10.945
		C258.973,114.958,261.965,121.167,264.523,128.532z"/>
	<circle fill="#fff" stroke="#82ca9c" stroke-width="20" stroke-miterlimit="10" cx="244.648" cy="249.594" r="131.97"/>
	<path fill="#82ca9c" d="M269.523,130.532c8.908,1.801,17.75,4.633,26.367,8.556c61.211,27.864,88.34,100.333,60.476,161.542
		c-27.864,61.211-100.331,88.34-161.542,60.476c-0.649-0.296-1.288-0.603-1.929-0.907c-6.496,4.36-13.23,8.329-20.168,11.882
		c4.422,2.629,9.023,5.05,13.811,7.229c71.248,32.435,155.598,0.856,188.032-70.391c32.434-71.249,0.854-155.598-70.393-188.032
		c-14.188-6.459-28.896-10.372-43.611-11.945C263.973,115.958,266.965,123.167,269.523,130.532z"/>
	<g>
		<path fill="#82ca9c" d="M191.757,286.163c-0.183-6.894,2.569-9.329,8.194-12.356c21.787-11.728,43.434-23.717,65.117-35.636
			c8.742-4.805,17.639-9.137,27.974-8.713c14.724,0.604,27.134,9.427,30.837,22.824c2.811,10.169,0.163,19.63-5.745,27.817
			c-9.647,13.368-22.808,20.676-39.688,20.238c-16.039-0.415-31.121-13.195-30.877-29.854c0.036-2.428-1.705-3.323-4.039-2.029
			c-13.604,7.544-27.176,15.146-40.76,22.727c-2.885,1.608-5.797,3.17-8.658,4.818c-1.891,1.09-2.471,0.527-2.377-1.527
			C191.84,292.091,191.757,289.702,191.757,286.163z"/>
		<path fill="#82ca9c" d="M171.885,254.67c-1.906-2.734-4.642-4.703-6.698-7.341c-1.561-2.002-0.966-2.521,0.896-3.479
			c11.222-5.766,22.391-11.633,33.572-17.475c15.045-7.861,29.895-16.128,45.188-23.472c12.218-5.866,24.712-5.635,36.282,2.28
			c6.859,4.69,12.166,11.104,18.383,17.083c-2.908,0.759-5.135-0.419-7.447-0.536c-10.973-0.553-20.887,2.19-30.416,7.699
			c-13.866,8.014-28.096,15.395-42.165,23.059c-9.926,5.408-19.823,10.873-29.785,16.217c-1.2,0.645-2.387,2.143-4.099,0.993"/>
		<path fill="#82ca9c" d="M169.239,275.229C167.187,273.088,171.354,277.302,169.239,275.229c-1.516-1.485-1.256-2.316,0.478-3.508
			c6.466-4.439,8.577-3.896,14.159,2.889c2.537,3.086,3.33,6.254,3.019,10.053c-0.218,2.668-0.042,5.369-0.042,8.693
			c-2.67-2.547-13.833-14.082-16.019-16.168C169.509,275.393,169.239,275.229,169.239,275.229z"/>
		<path fill="#82ca9c" d="M169.583,258.104c4.877,5.816,4.94,7.17-3.376,10.405c0-4.05,0-7.954,0-11.858
			C168.159,256.602,168.553,257.025,169.583,258.104z"/>
		<path fill="#82ca9c" d="M169.647,259.456c-1.147-0.935-2.294-1.869-3.439-2.806c0.041-0.514-0.072-1.508,0.793-0.797
			C168.145,256.798,169.535,257.698,169.647,259.456z"/>
		<path fill="transparent" d="M265.04,222.409c-0.091,1.826-1.24,2.591-2.36,3.17c-2.4,1.246-4.923,2.263-7.349,3.467
			c-1.373,0.684-2.295,0.486-3.382-0.675c-4.773-5.099-9.676-10.074-14.48-15.145c-1.811-1.911-1.503-3.308,0.979-4.606
			c9.023-4.725,8.989-4.789,16.106,2.49c2.832,2.896,5.686,5.768,8.479,8.697C263.832,220.643,264.457,221.643,265.04,222.409z"/>
	</g>
</g>
</svg>
